<svg width="156" height="19" viewBox="0 0 156 19" fill="none" xmlns="http://www.w3.org/2000/svg">
<path d="M9.49979 14.255V9.50057H4.7499V4.74609H0V19.0003H14.2405V14.2458H9.49059L9.49979 14.255Z" fill="black"/>
<path d="M9.5 0V4.75447H14.2499V9.50894H18.9998V0H9.5Z" fill="black"/>
<path d="M106.613 0.0351562V12.4511L110.205 15.7247V0.0351562H106.613Z" fill="black"/>
<path d="M114.774 0.0175781V15.7255H102.186V0.0359178H98.5859V15.212C99.9644 16.4591 101.334 17.7154 102.712 18.9625C107.936 18.9625 113.16 18.9808 118.384 18.99V0.0175781H114.774Z" fill="black"/>
<path d="M64.7814 18.99H61.1719V0.0175781H64.7814V18.99Z" fill="black"/>
<path d="M124.828 18.9724H121.219V0H124.828V18.9724Z" fill="black"/>
<path d="M80.4642 15.7449H71.2137V0.0644531H67.6133V15.2405C68.9918 16.4876 70.3612 17.7439 71.7397 18.991H80.4642V15.7449Z" fill="black"/>
<path d="M95.9525 15.7449H86.702V0.0644531H83.1016V15.2405C84.4801 16.4876 85.8495 17.7439 87.228 18.991H95.9525V15.7449Z" fill="black"/>
<path d="M140.519 15.7351H131.268V0.0546875H127.668V15.2308C129.046 16.4779 130.416 17.7341 131.794 18.9812H140.519V15.7351Z" fill="black"/>
<path d="M155.999 15.7351H146.749V0.0546875H143.148V15.2308C144.527 16.4779 145.896 17.7341 147.275 18.9812H155.999V15.7351Z" fill="black"/>
<path d="M39.8872 3.17362V0.0742188H31.0992C29.7298 1.32132 28.3604 2.55924 27 3.80634V11.1147C30.1651 11.1147 33.3303 11.1147 36.5045 11.1147V15.7455H27V19.0008H35.7426C37.1212 17.7445 38.5087 16.4882 39.8872 15.232V7.86858H30.3828V3.17362H39.8872Z" fill="black"/>
<path d="M58.3242 0.0175781H54.9414V7.87612C56.066 6.61069 57.1996 5.33608 58.3242 4.07064C58.3242 2.72268 58.3242 1.37471 58.3242 0.0175781Z" fill="black"/>
<path d="M46.1094 11.1316H54.9427V18.9902H58.3255C58.3255 16.3034 58.3255 13.6258 58.3255 10.9391L54.9427 7.86719C52.9656 7.86719 50.9886 7.86719 49.0115 7.86719C48.0411 8.9584 47.0798 10.0404 46.1094 11.1316Z" fill="black"/>
<path d="M46.1054 11.1314V0.0175781H42.7227C42.7227 6.34476 42.7227 12.6719 42.7227 18.99H46.1054V11.1314Z" fill="black"/>
</svg>
