<svg width="49" height="48" viewBox="0 0 49 48" fill="none" xmlns="http://www.w3.org/2000/svg">
<path d="M18.657 21.74C18.457 21.72 18.217 21.72 17.997 21.74C13.237 21.58 9.45703 17.68 9.45703 12.88C9.45703 7.98 13.417 4 18.337 4C23.237 4 27.217 7.98 27.217 12.88C27.197 17.68 23.417 21.58 18.657 21.74Z" stroke="#3D6ECF" stroke-width="3" stroke-linecap="round" stroke-linejoin="round"/>
<path d="M33.1545 8C37.0345 8 40.1545 11.14 40.1545 15C40.1545 18.78 37.1545 21.86 33.4145 22C33.2545 21.98 33.0745 21.98 32.8945 22" stroke="#3D6ECF" stroke-width="3" stroke-linecap="round" stroke-linejoin="round"/>
<path d="M8.65734 29.12C3.81734 32.36 3.81734 37.64 8.65734 40.86C14.1573 44.54 23.1773 44.54 28.6773 40.86C33.5173 37.62 33.5173 32.34 28.6773 29.12C23.1973 25.46 14.1773 25.46 8.65734 29.12Z" stroke="#3D6ECF" stroke-width="3" stroke-linecap="round" stroke-linejoin="round"/>
<path d="M37.0156 40C38.4556 39.7 39.8156 39.12 40.9356 38.26C44.0556 35.92 44.0556 32.06 40.9356 29.72C39.8356 28.88 38.4956 28.32 37.0756 28" stroke="#3D6ECF" stroke-width="3" stroke-linecap="round" stroke-linejoin="round"/>
</svg>
