<svg width="91" height="91" viewBox="0 0 91 91" fill="none" xmlns="http://www.w3.org/2000/svg">
<path d="M45.5078 7.99609C24.8453 7.99609 8.00781 24.8336 8.00781 45.4961C8.00781 66.1586 24.8453 82.9961 45.5078 82.9961C66.1703 82.9961 83.0078 66.1586 83.0078 45.4961C83.0078 24.8336 66.1703 7.99609 45.5078 7.99609ZM63.4328 36.8711L42.1703 58.1336C41.6453 58.6586 40.9328 58.9586 40.1828 58.9586C39.4328 58.9586 38.7203 58.6586 38.1953 58.1336L27.5828 47.5211C26.4953 46.4336 26.4953 44.6336 27.5828 43.5461C28.6703 42.4586 30.4703 42.4586 31.5578 43.5461L40.1828 52.1711L59.4578 32.8961C60.5453 31.8086 62.3453 31.8086 63.4328 32.8961C64.5203 33.9836 64.5203 35.7461 63.4328 36.8711Z" fill="#13B252"/>
</svg>
